<svg xmlns="http://www.w3.org/2000/svg" xmlns:xlink="http://www.w3.org/1999/xlink" width="159.803" height="126.875" viewBox="0 0 159.803 126.875"><defs><style>.a{fill:none;}.b{clip-path:url(#a);}.c{fill:#019df4;}.d{fill:#d3d4d3;}.e{fill:#5cb615;}.f{fill:#fff;}</style><clipPath id="a"><path class="a" d="M0,0H159.8V126.875H0Z" transform="translate(0 0)"/></clipPath></defs><path class="a" d="M0,0H159.8V126.875H0Z" transform="translate(0 0)"/><g class="b"><path class="c" d="M112.654,95.424H14.579A14.6,14.6,0,0,1,0,80.845V14.579A14.6,14.6,0,0,1,14.579,0h98.075a14.6,14.6,0,0,1,14.579,14.579V80.845A14.6,14.6,0,0,1,112.654,95.424ZM14.579,7.952a6.634,6.634,0,0,0-6.627,6.627V80.845a6.635,6.635,0,0,0,6.627,6.628h98.075a6.635,6.635,0,0,0,6.627-6.628V14.579a6.634,6.634,0,0,0-6.627-6.627Zm92.774,66.267H78.2a3.976,3.976,0,1,1,0-7.952h29.157a3.976,3.976,0,0,1,0,7.952Zm0-21.206H78.2a3.976,3.976,0,1,1,0-7.952h29.157a3.976,3.976,0,0,1,0,7.952Zm0-21.206H78.2a3.976,3.976,0,1,1,0-7.951h29.157a3.976,3.976,0,0,1,0,7.951Z" transform="translate(16.285 15.725)"/><g transform="translate(0)"><path class="d" d="M32.189,28.462H7.455V3.728A3.728,3.728,0,0,0,0,3.728V32.189a3.728,3.728,0,0,0,3.728,3.728H32.189a3.728,3.728,0,1,0,0-7.455" transform="translate(0 90.958)"/><path class="d" d="M3.728,35.917a3.728,3.728,0,0,0,3.728-3.728V7.455H32.189a3.728,3.728,0,1,0,0-7.455H3.728A3.728,3.728,0,0,0,0,3.728V32.189a3.728,3.728,0,0,0,3.728,3.728" transform="translate(0 0)"/><path class="d" d="M32.189,0a3.728,3.728,0,0,0-3.728,3.728V28.462H3.728a3.728,3.728,0,1,0,0,7.455H32.189a3.728,3.728,0,0,0,3.728-3.728V3.728A3.728,3.728,0,0,0,32.189,0" transform="translate(123.886 90.958)"/><path class="d" d="M32.189,0H3.728a3.728,3.728,0,0,0,0,7.455H28.462V32.189a3.728,3.728,0,1,0,7.455,0V3.728A3.728,3.728,0,0,0,32.189,0" transform="translate(123.886 0)"/></g><g transform="translate(32.189 36.931)"><path class="e" d="M3.976,21.206A3.977,3.977,0,0,0,7.952,17.23V14.579a6.636,6.636,0,0,1,6.627-6.627H33.133a6.636,6.636,0,0,1,6.627,6.627V17.23a3.976,3.976,0,1,0,7.952,0V14.579A14.591,14.591,0,0,0,33.133,0H14.579A14.591,14.591,0,0,0,0,14.579V17.23a3.977,3.977,0,0,0,3.976,3.976" transform="translate(0 31.808)"/><path class="e" d="M13.253,26.507A13.254,13.254,0,1,0,0,13.254,13.272,13.272,0,0,0,13.253,26.507" transform="translate(10.603 0)"/><path class="f" d="M5.3,0A5.3,5.3,0,1,1,0,5.3,5.31,5.31,0,0,1,5.3,0" transform="translate(18.555 7.952)"/></g></g></svg>